<?xml version="1.0" encoding="utf-8"?>
<svg version="1.1" viewBox="0 0 1024 1024" width="1024" height="1024" style="stroke:none;stroke-linecap:butt;stroke-linejoin:miter;stroke-width:1;stroke-dasharray:none;fill:#000000;fill-opacity:1;fill-rule:evenodd" font-family="Arial" font-size="15" xmlns:xlink="http://www.w3.org/1999/xlink" xmlns="http://www.w3.org/2000/svg">
  <path d="M811.4923,128.6164C815.6264,108.1141 822.8213,85.373 833.1895,66.4202C833.1931,66.3929 839.9495,51.7928 851.5307,32.8855C856.3283,23.884 861.1096,21.0956 868.1214,23.9016C880.4185,27.8885 880.3327,27.8885 894.7047,37.849C909.2164,48.3165 918.7912,59.2491 928.2066,72.9824C933.7602,82.4778 936.396,88.3617 939.0196,98.3116C942.0232,110.4603 944.3822,119.2576 945.885,129.9179C945.4191,137.2268 945.1984,137.6812 939.1667,141.0716C926.8948,144.6216 920.0172,146.7221 904.2758,154.117C889.9075,160.7502 889.8339,160.4554 871.5303,173.12C862.9201,179.9048 859.8714,184.6545 854.3659,195.5491C853.1968,196.9554 806.1674,157.5484 805.9751,157.5484C808.8345,142.0543 809.2268,142.2754 811.4923,128.6164z" style="stroke:#2E7D32;fill:#2E7D32;" />
  <path d="M686.5809,122.595C814.3355,122.595 919.4616,227.7211 919.4616,355.4757C919.4616,389.4105 912.0443,421.7487 898.7557,450.9442L896.1566,456.2846L895.7225,457.9733C888.8339,478.9052 859.6743,514.2051 856.3001,534.2446C852.926,554.2842 850.3228,567.7822 848.9579,599.2283L848.743,604.7955L848.8743,609.9108C848.8743,817.3557 678.1729,988.057 470.7281,988.057C263.2832,988.057 92.5819,817.3557 92.5819,609.9108C92.5819,421.9139 232.777,264.0941 413.4634,236.1551L418.08,235.5612L422.1428,234.7085C440.8105,230.8585 465.9221,225.9704 484.1711,217.2956C520.6693,199.946 528.8983,179.3625 545.3142,170.9673L545.3946,170.9245L552.1442,165.8007C590.2255,138.636 636.6768,122.595 686.5809,122.595z" style="stroke:#4CAF50;fill:#4CAF50;" />
  <g opacity="0.1">
    <path d="M539.2153,740.9371L421.6761,771.178L530.64,771.7089L539.2153,740.9371zM579.0434,364.1187L847.7473,637.4348L846.9066,648.3434C827.3931,838.0265 665.2076,988.057 470.7281,988.057C464.2454,988.057 457.7986,987.8903 451.3918,987.561L445.3168,987.0928L235.729,770.272L321.9211,770.692L417.0365,429.3746L579.7744,595.3926L589.7856,559.4675L485.2792,453.1672L579.0434,364.1187z" style="stroke:#000000;" />
  </g>
  <path d="M467.9565,409.3371C467.9565,373.6858 497.293,344.3493 532.9443,344.3493C568.5956,344.3493 597.9321,373.6858 597.9321,409.3371C597.9321,444.9884 568.5956,474.3249 532.9443,474.3249C497.293,474.3249 467.9565,444.9884 467.9565,409.3371z" style="stroke:#FFFF66;fill:#FFFF66;" />
  <path d="M404.9211,437.3405L519.9482,662.2911L588.0243,529.7507L704.1188,756.7886L471.5416,756.536L471.5544,756.5111L241.1154,756.2609L404.9211,437.3405z" style="stroke:#E5FFCC;stroke-linecap:round;stroke-linejoin:round;stroke-width:30;fill:#E5FFCC;" />
</svg>